[IMG]http://i126.photobucket.com/albums/p102/tebugg/81uxFXg92wL_AA1467_.jpg[/IMG]

[IMG]http://i126.photobucket.com/albums/p102/tebugg/info.png[/IMG]


General
Complete name                    : E:\As Good As Dead DVDRip Xvid AC3-THC\As Good As Dead DVDRip Xvid AC3-THC.avi
Format                           : AVI
Format/Info                      : Audio Video Interleave
Format profile                   : OpenDML
File size                        : 1.17 GiB
Duration                         : 1h 31mn
Overall bit rate                 : 1 825 Kbps
Writing application              : AVI-Mux GUI 1.17.8.3, Feb 16 201019:42:50

Video
ID                               : 0
Format                           : MPEG-4 Visual
Format profile                   : Advanced Simple@L5
Format settings, BVOP            : Yes
Format settings, QPel            : No
Format settings, GMC             : No warppoints
Format settings, Matrix          : Default (MPEG)
Codec ID                         : XVID
Codec ID/Hint                    : XviD
Duration                         : 1h 31mn
Bit rate                         : 1 500 Kbps
Width                            : 720 pixels
Height                           : 384 pixels
Display aspect ratio             : 1.875
Frame rate                       : 23.976 fps
Color space                      : YUV
Chroma subsampling               : 4:2:0
Bit depth                        : 8 bits
Scan type                        : Progressive
Bits/(Pixel*Frame)               : 0.226
Stream size                      : 985 MiB (82%)
Writing library                  : XviD 1.2.1 (UTC 2008-12-04)

Audio
ID                               : 1
Format                           : AC-3
Format/Info                      : Audio Coding 3
Mode extension                   : CM (complete main)
Codec ID                         : 2000
Duration                         : 1h 31mn
Bit rate mode                    : Constant
Bit rate                         : 320 Kbps
Channel(s)                       : 6 channels
Channel positions                : Front: L C R, Side: L R, LFE
Sampling rate                    : 48.0 KHz
Bit depth                        : 16 bits
Stream size                      : 210 MiB (18%)
Alignment                        : Aligned on interleaves
Interleave, duration             : 64 ms (1.53 video frames)
Interleave, preload duration     : 192 ms
Title                            : VTS_01_1 T80 3_2ch 320Kbps DELAY 0ms

Actors: Andie MacDowell, Cary Elwes, Frank Whaley
Directors: Jonathan Mossek
Language: English
Subtitle: English, Spanish
Rated: R (Restricted)
Studio: First Look Studios
DVD Release Date: October 12, 2010
Run Time: 91 minutes
Sample Included: Yes


[IMG]http://i126.photobucket.com/albums/p102/tebugg/screens-1.png[/IMG]

[IMG]http://i126.photobucket.com/albums/p102/tebugg/vlcsnap-2010-10-25-14h39m48s239.png[/IMG]
[IMG]http://i126.photobucket.com/albums/p102/tebugg/vlcsnap-2010-10-25-14h40m09s192.png[/IMG]
[IMG]http://i126.photobucket.com/albums/p102/tebugg/vlcsnap-2010-10-25-14h40m34s186.png[/IMG]
[IMG]http://i126.photobucket.com/albums/p102/tebugg/vlcsnap-2010-10-25-14h40m45s45.png[/IMG]

